<?xml version="1.0" encoding="UTF-8" standalone="no"?>
<svg
   xmlns:dc="http://purl.org/dc/elements/1.1/"
   xmlns:cc="http://creativecommons.org/ns#"
   xmlns:rdf="http://www.w3.org/1999/02/22-rdf-syntax-ns#"
   xmlns:svg="http://www.w3.org/2000/svg"
   xmlns="http://www.w3.org/2000/svg"
   xmlns:sodipodi="http://sodipodi.sourceforge.net/DTD/sodipodi-0.dtd"
   xmlns:inkscape="http://www.inkscape.org/namespaces/inkscape"
   class="nyplLionLogo svgIcon"
   width="142.49844"
   height="80.109535"
   viewBox="0 0 142.49844 80.109535"
   focusable="false"
   data-reactid="49"
   version="1.1"
   id="svg78"
   sodipodi:docname="logo.svg"
   inkscape:version="1.0.1 (3bc2e813f5, 2020-09-07)">
  <metadata
     id="metadata84">
    <rdf:RDF>
      <cc:Work
         rdf:about="">
        <dc:format>image/svg+xml</dc:format>
        <dc:type
           rdf:resource="http://purl.org/dc/dcmitype/StillImage" />
        <dc:title>The New York Public Library</dc:title>
      </cc:Work>
    </rdf:RDF>
  </metadata>
  <defs
     id="defs82" />
  <sodipodi:namedview
     pagecolor="#ffffff"
     bordercolor="#666666"
     borderopacity="1"
     objecttolerance="10"
     gridtolerance="10"
     guidetolerance="10"
     inkscape:pageopacity="0"
     inkscape:pageshadow="2"
     inkscape:window-width="2824"
     inkscape:window-height="1210"
     id="namedview80"
     showgrid="false"
     fit-margin-top="0"
     fit-margin-left="0"
     fit-margin-right="0"
     fit-margin-bottom="0"
     inkscape:zoom="5.6342412"
     inkscape:cx="128.60807"
     inkscape:cy="72"
     inkscape:window-x="2397"
     inkscape:window-y="387"
     inkscape:window-maximized="0"
     inkscape:current-layer="svg78" />
  <title
     data-reactid="50"
     id="title2">The New York Public Library</title>
  <g
     class="nyplLionLogo-text"
     data-reactid="51"
     id="g50"
     transform="matrix(0.55377501,0,0,0.55377501,0.05984631,0)">
    <g
       class="nyplLionLogo-text-ny"
       data-reactid="52"
       id="g18">
      <path
         d="m 156.36639,26.64949 h 1.93408 l 14.21812,20.593 v -20.593 H 174.381 V 50.5016 h -1.82667 L 158.19274,29.76519 V 50.5016 h -1.82635 z"
         transform="translate(-27.25197,-24.7154)"
         data-reactid="53"
         id="path4" />
      <path
         d="m 178.14171,41.79879 c 0,-4.83479 2.79354,-8.77447 7.34205,-8.77447 4.36937,0 6.769,3.50975 6.41048,8.38043 h -11.7828 v 0.394 c 0.036,3.90364 1.68361,7.48511 5.76653,7.48511 a 8.46392,8.46392 0 0 0 4.942,-1.6117 l 0.78812,1.46846 a 9.8233,9.8233 0 0 1 -5.80219,1.755 c -5.2289,2e-5 -7.66419,-4.19029 -7.66419,-9.09683 z m 11.89053,-1.934 c -0.0357,-2.57842 -1.36073,-5.22886 -4.61985,-5.22886 -2.97264,0 -4.69193,2.29208 -5.19321,5.22886 z"
         transform="translate(-27.25197,-24.7154)"
         data-reactid="54"
         id="path6" />
      <path
         d="m 193.899,33.41818 h 2.00542 l 4.155,14.21833 4.47647,-14.21833 h 1.82667 l 4.47679,14.254 4.18995,-14.254 h 1.8627 l -5.15755,17.08342 h -1.71894 L 205.3953,36.10434 200.77545,50.5016 h -1.71894 z"
         transform="translate(-27.25197,-24.7154)"
         data-reactid="55"
         id="path8" />
      <path
         d="m 233.365,41.51212 -7.98639,-14.86264 h 2.22057 l 6.76869,12.8929 h 0.0717 l 6.76869,-12.8929 h 2.00572 l -7.915,14.86264 v 8.98948 h -1.934 z"
         transform="translate(-27.25197,-24.7154)"
         data-reactid="56"
         id="path10" />
      <path
         d="m 241.60144,41.97789 c 0,-4.29786 2.29194,-8.95357 7.66422,-8.95357 5.37228,0 7.84333,4.62 7.84333,8.88188 0,4.2975 -2.43536,8.98944 -7.80764,8.98944 -5.37196,0 -7.69991,-4.62021 -7.69991,-8.91775 z m 13.53778,0 c 0,-3.83227 -2.04146,-7.342 -5.94493,-7.342 -3.86813,0 -5.62308,3.4382 -5.62308,7.27032 0,3.868 1.89836,7.3777 5.76582,7.3777 3.90382,-10e-6 5.80219,-3.4382 5.80219,-7.30602 z"
         transform="translate(-27.25197,-24.7154)"
         data-reactid="57"
         id="path12" />
      <path
         d="m 260.68578,33.41818 h 1.86268 v 2.97264 c 0.64469,-1.25353 2.18453,-3.3665 4.5842,-3.3665 a 4.68342,4.68342 0 0 1 1.64757,0.28648 l -0.46591,1.7548 a 3.56466,3.56466 0 0 0 -1.39677,-0.25066 c -2.36363,0 -3.90381,2.79371 -4.36909,3.79644 V 50.5016 h -1.86268 z"
         transform="translate(-27.25197,-24.7154)"
         data-reactid="58"
         id="path14" />
      <path
         d="m 272.21742,24.7154 h 1.86236 v 25.7862 h -1.86236 z m 2.04111,16.18807 7.48547,-7.48529 h 2.32795 l -7.55684,7.48529 7.9507,9.59813 h -2.32795 z"
         transform="translate(-27.25197,-24.7154)"
         data-reactid="59"
         id="path16" />
    </g>
    <g
       class="nyplLionLogo-text-public"
       data-reactid="60"
       id="g32">
      <path
         d="m 156.40225,62.53555 h 5.193 c 5.01407,0 8.16582,2.47119 8.16582,6.733 0,4.29754 -2.97264,6.98369 -8.38061,6.98369 h -3.00833 v 10.13538 h -1.96991 V 62.53555 Z m 4.94256,12.03345 c 4.54816,0 6.41052,-2.07729 6.41052,-5.22886 0,-2.97264 -1.79067,-5.12148 -6.33914,-5.12148 h -3.044 V 74.569 h 2.97264 z"
         transform="translate(-27.25197,-24.7154)"
         data-reactid="61"
         id="path20" />
      <path
         d="M 172.76837,81.37373 V 69.30424 h 1.86271 v 11.67542 c 0,2.50723 0.89514,4.11861 3.5096,4.11861 2.54306,0 4.65554,-2.39949 5.22886,-3.40219 V 69.30424 h 1.862 v 13.78861 a 14.41314,14.41314 0 0 0 0.32252,3.29478 h -1.898 a 18.73138,18.73138 0 0 1 -0.2508,-2.79354 6.85642,6.85642 0 0 1 -5.65845,3.18761 c -3.58132,0 -4.97844,-2.32812 -4.97844,-5.40797 z"
         transform="translate(-27.25197,-24.7154)"
         data-reactid="62"
         id="path22" />
      <path
         d="M 189.88744,85.49231 V 60.60146 h 1.862 v 10.27883 a 6.07292,6.07292 0 0 1 4.47714,-1.96974 c 4.87033,0 7.23432,3.90347 7.23432,8.88171 0,4.79913 -3.22344,8.98944 -8.45233,8.98944 a 9.6515,9.6515 0 0 1 -5.12113,-1.28939 z M 201.49116,77.864 c 0,-3.72489 -1.43281,-7.27032 -5.58707,-7.27032 a 6.12767,6.12767 0 0 0 -4.15465,1.934 v 11.96194 a 7.70565,7.70565 0 0 0 3.33121,0.68035 c 4.33301,3e-5 6.41051,-3.76059 6.41051,-7.30597 z"
         transform="translate(-27.25197,-24.7154)"
         data-reactid="63"
         id="path24" />
      <path
         d="m 207.292,60.60146 h 1.86271 V 86.38762 H 207.292 Z"
         transform="translate(-27.25197,-24.7154)"
         data-reactid="64"
         id="path26" />
      <path
         d="m 214.23944,64.25466 a 1.41471,1.41471 0 1 1 2.82919,0 1.41558,1.41558 0 1 1 -2.82919,0 z m 0.46559,5.04958 h 1.898 v 17.08338 h -1.898 z"
         transform="translate(-27.25197,-24.7154)"
         data-reactid="65"
         id="path28" />
      <path
         d="m 220.184,77.82795 c 0,-5.40782 3.116,-8.91739 7.52112,-8.91739 a 7.42136,7.42136 0 0 1 5.08548,1.79045 l -0.96686,1.36094 a 6.121,6.121 0 0 0 -4.1543,-1.54 c -3.79641,0 -5.5157,3.295 -5.5157,7.23464 0,3.79623 1.68361,7.41339 5.48,7.41339 a 6.88911,6.88911 0 0 0 4.36941,-1.54 l 0.82344,1.39677 a 8.00839,8.00839 0 0 1 -5.30059,1.755 c -4.90631,-5e-5 -7.342,-4.36946 -7.342,-8.9538 z"
         transform="translate(-27.25197,-24.7154)"
         data-reactid="66"
         id="path30" />
    </g>
    <g
       class="nyplLionLogo-text-library"
       data-reactid="67"
       id="g48">
      <path
         d="M 155.86494,122.27422 V 98.42179 h 5.08565 v 19.76915 h 8.88188 v 4.08328 z"
         transform="translate(-27.25197,-24.7154)"
         data-reactid="68"
         id="path34" />
      <path
         d="m 176.00777,102.5764 a 2.8586,2.8586 0 0 1 -2.90127,-2.8654 2.82221,2.82221 0 0 1 2.90127,-2.79354 2.85364,2.85364 0 0 1 2.9366,2.79354 2.88946,2.88946 0 0 1 -2.9366,2.8654 z m -2.39967,19.69782 v -17.44227 h 4.799 v 17.44227 z"
         transform="translate(-27.25197,-24.7154)"
         data-reactid="69"
         id="path36" />
      <path
         d="m 187.36031,96.4877 v 9.706 a 6.22015,6.22015 0 0 1 4.26168,-1.791 c 4.36973,0 7.41374,3.008 7.41374,9.0253 0,5.94493 -4.0112,9.27574 -9.27578,9.27574 A 16.58426,16.58426 0 0 1 182.597,121.307 V 96.4877 h 4.76327 z m 0,22.09713 a 6.72755,6.72755 0 0 0 2.39964,0.39457 c 2.65011,0 4.22563,-1.96974 4.22563,-5.55139 0,-3.25913 -1.10993,-5.26455 -3.68867,-5.26455 a 4.14376,4.14376 0 0 0 -2.9366,1.325 v 9.09632 z"
         transform="translate(-27.25197,-24.7154)"
         data-reactid="70"
         id="path38" />
      <path
         d="m 212.42937,109.02257 a 3.39138,3.39138 0 0 0 -1.827,-0.39386 c -2.11248,0 -3.36615,1.86271 -3.79605,2.65012 v 10.99539 H 202.043 v -17.44227 h 4.7633 v 2.36431 a 5.16217,5.16217 0 0 1 4.40506,-2.79354 4.7777,4.7777 0 0 1 2.364,0.46594 z"
         transform="translate(-27.25197,-24.7154)"
         data-reactid="71"
         id="path40" />
      <path
         d="m 225.03561,122.27422 a 9.70593,9.70593 0 0 1 -0.28684,-1.86271 6.43294,6.43294 0 0 1 -4.90634,2.29226 c -2.97264,0 -5.26454,-1.79028 -5.26454,-4.90669 0,-4.54851 4.69154,-6.19573 9.31143,-6.19573 h 0.609 v -1.00291 c 0,-1.5045 -0.609,-2.435 -2.82922,-2.435 a 7.36142,7.36142 0 0 0 -4.4411,1.64721 l -2.07715,-2.90091 a 10.36488,10.36488 0 0 1 7.05553,-2.50705 c 4.76331,0 7.01953,1.82667 7.01953,6.44656 v 6.26742 a 23.45627,23.45627 0 0 0 0.50128,5.15752 h -4.69158 z m -0.53728,-7.73627 h -0.609 c -2.79318,0 -4.72727,0.82412 -4.72727,2.86523 a 1.86412,1.86412 0 0 0 2.11284,1.82635 4.27676,4.27676 0 0 0 3.22344,-1.53951 V 114.538 Z"
         transform="translate(-27.25197,-24.7154)"
         data-reactid="72"
         id="path42" />
      <path
         d="m 243.44337,109.02257 a 3.39017,3.39017 0 0 0 -1.82632,-0.39386 c -2.11315,0 -3.36686,1.86271 -3.79676,2.65012 v 10.99539 H 233.057 v -17.44227 h 4.76331 v 2.36431 a 5.16277,5.16277 0 0 1 4.40541,-2.79354 4.77608,4.77608 0 0 1 2.36363,0.46594 z"
         transform="translate(-27.25197,-24.7154)"
         data-reactid="73"
         id="path44" />
      <path
         d="m 246.30792,104.83195 h 5.08548 l 3.86813,11.497 h 0.17907 l 3.54564,-11.497 h 4.90669 l -7.19863,19.30392 c -1.54019,4.119 -3.36686,6.51825 -8.12981,6.51825 a 9.32322,9.32322 0 0 1 -2.68612,-0.32217 l 0.68038,-3.7604 a 5.485,5.485 0 0 0 1.68325,0.17879 c 2.43532,0 3.29481,-1.1813 3.97516,-3.044 l 0.64469,-1.79031 z"
         transform="translate(-27.25197,-24.7154)"
         data-reactid="74"
         id="path46" />
    </g>
  </g>
  <g
     class="nyplLionLogo-lion"
     data-reactid="75"
     id="g76"
     transform="matrix(0.55377501,0,0,0.55377501,0.05984631,0)">
    <path
       d="m 111.90871,99.19328 c -3.7417,-1.83124 -8.60114,-2.74854 -12.13721,-4.7124 -2.7998,-1.55231 -4.946,-4.11652 -7.95886,-5.498 a 60.02908,60.02908 0 0 0 -9.468,-3.45349 c -6.25116,-1.53778 -11.50183,0.46472 -13.323,1.90582 a 13.4137,13.4137 0 0 0 -5.02052,13.33879 15.94352,15.94352 0 0 0 2.55627,6.72852 c 5.27264,7.447 15.14136,9.86646 22.95953,14.56458 a 0.50625,0.50625 0 0 0 0.73907,-0.10187 c 1.31311,-1.93127 2.3808,-3.48566 4.59235,-4.40546 2.24567,-0.93738 5.7793,-0.619 8.82611,-0.47076 3.14771,0.1521 6.54541,-0.14337 7.68689,-1.77087 1.36383,-1.94238 1.28436,-5.85663 -0.7973,-7.05243 -1.117,-0.64368 -2.78278,-0.6731 -3.9975,-1.23328 a 4.3204,4.3204 0 0 1 -2.059,-2.24237 4.07459,4.07459 0 0 1 -0.25964,-3.31146 c 0.489,-0.88025 1.7226,-0.63116 2.71332,-0.40076 1.9635,0.45068 5.24432,0.92871 7.13336,0.1001 0.55656,-0.28446 -1.43331,-1.6168 -2.18587,-1.98466 z M 92.18856,98.119 c -0.16821,0.87573 -0.7019,2.567 -1.55566,2.67712 -0.86029,0.1098 -1.48022,-0.81232 -2.09686,-1.15808 A 24.4124,24.4124 0 0 0 84.66342,98.2274 c -1.17352,-0.38867 -2.78247,-0.87018 -3.254,-1.98981 -0.707,-1.66663 0.94434,-2.45544 2.13348,-2.82123 a 12.11641,12.11641 0 0 1 3.40045,-0.54181 c 2.1485,-0.10327 4.19965,0.20435 4.92053,1.55475 a 6.49319,6.49319 0 0 1 0.32468,3.6897 z"
       transform="translate(-27.25197,-24.7154)"
       fill="#ffffff"
       data-reactid="76"
       id="path52" />
    <path
       d="M 32.83333,104.45157 A 2.29443,2.29443 0 0 1 33.37946,103.1355 34.48454,34.48454 0 0 1 52.806,91.93851 c 1.50521,-0.21582 2.58985,-0.11156 2.83649,0.49191 0.43235,1.05764 -0.4436,1.66732 -1.49758,2.27736 C 35.79955,105.672 37.1,121.9711 36.92438,128.639 c 0.05527,2.72734 -1.91432,3.22379 -2.40623,1.93891 a 48.03813,48.03813 0 0 1 -1.68482,-26.12634 z"
       transform="translate(-27.25197,-24.7154)"
       fill="#ffffff"
       data-reactid="77"
       id="path54" />
    <path
       d="m 45.24681,80.43961 a 2.19666,2.19666 0 0 1 1.1785,-0.73891 30.35514,30.35514 0 0 1 19.20314,1.6337 c 1.14285,0.50578 1.65764,1.2227 0.90727,1.704 a 38.83021,38.83021 0 0 0 -5.4445,3.92461 2.4715,2.4715 0 0 1 -1.782,0.35665 c -5.96657,-0.78655 -9.06564,-1.25111 -18.03517,2.149 -1.37634,0.57868 -2.61425,-0.20873 -1.98084,-1.29042 a 45.71179,45.71179 0 0 1 5.9536,-7.73863 z"
       transform="translate(-27.25197,-24.7154)"
       fill="#ffffff"
       data-reactid="78"
       id="path56" />
    <path
       d="M 56.83993,73.40033 C 55.29751,73.2247 55.27566,72.0964 55.9278,71.65681 a 37.79982,37.79982 0 0 1 7.13141,-3.67693 3.616,3.616 0 0 1 1.99226,-0.33359 c 2.016,0.20181 5.35429,1.55906 9.18483,4.292 4.59371,3.27786 8.68043,9.50494 5.94738,9.0009 a 25.58659,25.58659 0 0 0 -3.00191,-0.43945 c -2.07059,-0.18361 -3.42908,0.02891 -4.3831,-0.06825 A 1.96274,1.96274 0 0 1 71.76253,79.88105 C 67.88555,76.40433 63.4065,74.19781 56.83993,73.40033 Z"
       transform="translate(-27.25197,-24.7154)"
       fill="#ffffff"
       data-reactid="79"
       id="path58" />
    <path
       d="m 130.64639,127.82663 c -0.41362,1.29077 -0.90482,2.91 -1.9576,2.15892 a 47.305,47.305 0 0 0 -10.51423,-5.80672 c -0.22586,-0.0506 -0.20021,-0.36442 -0.12054,-0.54143 a 7.76418,7.76418 0 0 0 0.56119,-2.05533 5.10548,5.10548 0 0 1 1.01156,-1.8083 18.619,18.619 0 0 0 1.89907,-6.60278 16.56311,16.56311 0 0 0 -0.30071,-5.24067 10.43877,10.43877 0 0 1 -0.63877,-2.31961 c 0.0125,-0.73927 0.36027,-1.51387 0.43164,-2.38651 0.20819,-2.525 -2.97853,-4.63025 -4.71776,-5.44156 -3.94536,-1.84228 -8.13861,-3.48984 -12.39993,-5.73812 -2.40556,-1.26892 -4.33617,-4.05224 -6.26607,-5.546 -1.94966,-1.50432 -8.21587,-3.9897 -10.72015,-4.65121 a 1.03792,1.03792 0 0 1 -0.86172,-0.86328 25.0259,25.0259 0 0 0 -9.3712,-14.55086 c -1.759,-1.36679 0.21341,-2.14416 2.63539,-2.26232 38.18244,-1.30898 60.15456,33.82933 51.32983,63.65578 z"
       transform="translate(-27.25197,-24.7154)"
       fill="#ffffff"
       data-reactid="80"
       id="path60" />
    <path
       d="m 115.14271,110.93761 c -0.0274,-0.19436 -0.111,-0.85254 -0.11036,-0.98836 a 2.60871,2.60871 0 0 1 1.04881,-1.08393 10.66027,10.66027 0 0 1 1.47176,-1.03614 c 0.13838,-0.0869 0.23019,0.114 0.24892,0.15381 1.40748,2.13671 0.87988,7.41754 -0.13721,9.92874 -0.11795,0.25534 -0.33306,0.35473 -0.42089,0.16768 a 6.365,6.365 0 0 0 -2.17328,-2.71248 0.53647,0.53647 0 0 1 -0.16314,-0.43959 10.78454,10.78454 0 0 0 0.23539,-3.98973 z"
       transform="translate(-27.25197,-24.7154)"
       fill="#ffffff"
       data-reactid="81"
       id="path62" />
    <path
       d="m 97.73573,123.93565 a 3.07547,3.07547 0 0 1 1.33667,-1.817 c 1.28091,-0.80333 3.40964,-0.838 5.46408,-0.97864 a 17.34326,17.34326 0 0 0 5.53425,-0.90517 c 0.85722,-0.39425 1.71461,-1.517 3.03915,-0.945 a 2.19649,2.19649 0 0 1 1.15583,1.41653 5.15178,5.15178 0 0 1 0.29759,2.13323 c -0.19071,2.46342 -2.1913,3.66618 -2.55122,5.96884 a 2.05507,2.05507 0 0 1 -0.29862,1.07563 c -1.52756,1.55473 -4.54834,1.22774 -7.27933,0.95267 a 8.69735,8.69735 0 0 1 -2.6051,-0.43856 5.72964,5.72964 0 0 1 -1.302,-1.04622 30.722,30.722 0 0 1 -2.24377,-2.38822 4.156,4.156 0 0 1 -1.01465,-1.30081 6.83012,6.83012 0 0 1 0.46712,-1.72728 z"
       transform="translate(-27.25197,-24.7154)"
       fill="#ffffff"
       data-reactid="82"
       id="path64" />
    <path
       d="m 49.90735,152.96743 a 8.06424,8.06424 0 0 1 -2.0101,-2.48694 c -4.67633,-7.4744 -7.29718,-33.94506 -1.27119,-42.92361 1.91762,-3.14586 3.94919,-1.69538 3.274,0.73615 -1.15409,5.45855 -0.44672,8.51743 2.20759,14.44054 4.1714,8.80221 17.047,21.02289 20.4556,25.45534 5.84308,7.6015 7.7877,13.13937 7.76138,14.63142 -0.03154,1.14459 -0.25115,1.87413 -2.25675,1.70475 A 50.122,50.122 0 0 1 49.90735,152.96743 Z"
       transform="translate(-27.25197,-24.7154)"
       fill="#ffffff"
       data-reactid="83"
       id="path66" />
    <path
       d="M 55.95568,117.26983 A 21.79207,21.79207 0 0 1 56.26125,99.645 c 0.7188,-1.35484 1.42117,-2.24 2.33834,-1.985 0.998,0.27818 1.22855,1.29978 1.36626,3.19329 1.01553,15.714 10.52044,21.00487 22.459,26.55281 9.41867,4.81489 20.135,10.31952 29.11613,23.65392 1.35938,1.92507 1.55544,3.09321 0.0208,4.19587 A 48.8677,48.8677 0 0 1 93.868,163.29216 c -1.09244,0.25566 -2.21933,0.0637 -3.187,-2.43259 C 80.59868,134.8822 63.671,136.05311 55.95568,117.26983 Z"
       transform="translate(-27.25197,-24.7154)"
       fill="#ffffff"
       data-reactid="84"
       id="path68" />
    <path
       d="m 118.40353,149.20773 c -1.535,1.5343 -2.40553,0.3315 -2.907,-0.65371 a 45.56777,45.56777 0 0 0 -7.63545,-12.10255 0.78694,0.78694 0 0 1 0.72767,-1.34444 5.49981,5.49981 0 0 0 3.03671,-0.493 6.08555,6.08555 0 0 0 2.787,-3.94433 c 0.427,-1.50695 0.447,-1.95037 1.37041,-2.04423 a 3.03406,3.03406 0 0 1 0.90418,0.10947 10.91687,10.91687 0 0 1 3.21234,1.91465 31.19354,31.19354 0 0 1 6.22659,6.775 1.79563,1.79563 0 0 1 -0.19539,1.76708 50.13544,50.13544 0 0 1 -7.52706,10.01606 z"
       transform="translate(-27.25197,-24.7154)"
       fill="#ffffff"
       data-reactid="85"
       id="path70" />
    <path
       d="m 82.02851,59.23935 a 55.06858,55.06858 0 1 0 55.25255,55.07377 54.89374,54.89374 0 0 0 -55.25255,-55.07377 z m -32.12116,93.71492 a 8.06426,8.06426 0 0 1 -2.0101,-2.48694 c -4.67633,-7.4744 -7.29718,-33.9451 -1.27119,-42.92361 1.91762,-3.14586 3.94919,-1.69538 3.274,0.73615 -1.15409,5.45855 -0.44672,8.51743 2.20759,14.44054 4.1714,8.80221 17.047,21.02289 20.4556,25.45534 5.84308,7.6015 7.7877,13.13937 7.76138,14.63142 -0.03154,1.14455 -0.25115,1.87413 -2.25675,1.70471 A 50.12176,50.12176 0 0 1 49.90735,152.95427 Z m 80.739,-25.14079 c -0.41362,1.29077 -0.90482,2.90992 -1.9576,2.15892 a 47.30207,47.30207 0 0 0 -10.51423,-5.80672 c -0.22586,-0.0506 -0.20021,-0.36442 -0.12054,-0.54143 a 7.76415,7.76415 0 0 0 0.56119,-2.05533 5.10548,5.10548 0 0 1 1.01156,-1.80829 18.61918,18.61918 0 0 0 1.89907,-6.60278 16.56311,16.56311 0 0 0 -0.30071,-5.24067 10.43874,10.43874 0 0 1 -0.63877,-2.31961 c 0.0125,-0.73927 0.36027,-1.51387 0.43164,-2.38652 0.20819,-2.525 -2.97853,-4.63007 -4.71776,-5.44138 -3.94536,-1.84228 -8.13861,-3.48984 -12.39993,-5.73812 -2.40556,-1.269 -4.33617,-4.05224 -6.26607,-5.546 -1.94966,-1.50432 -8.21587,-3.98974 -10.72015,-4.65121 A 1.038,1.038 0 0 1 86.05233,80.97106 25.02589,25.02589 0 0 0 76.68113,66.4202 c -1.759,-1.36683 0.21341,-2.14419 2.63539,-2.26232 38.18248,-1.309 60.1546,33.82932 51.32987,63.65559 z m -15.50368,-16.889 c -0.0274,-0.19436 -0.111,-0.85253 -0.11036,-0.98836 a 2.60871,2.60871 0 0 1 1.04881,-1.08393 10.66026,10.66026 0 0 1 1.47176,-1.03614 c 0.13838,-0.087 0.23019,0.114 0.24892,0.15381 1.40748,2.13671 0.87988,7.41754 -0.13721,9.92874 -0.11795,0.25534 -0.33306,0.35473 -0.42089,0.16768 a 6.365,6.365 0 0 0 -2.17328,-2.71248 0.5365,0.5365 0 0 1 -0.16314,-0.43962 10.7843,10.7843 0 0 0 0.23543,-3.98973 z M 69.02163,87.42221 c 1.82114,-1.44111 7.07185,-3.44359 13.323,-1.90581 a 60.02216,60.02216 0 0 1 9.468,3.45363 c 3.0128,1.3812 5.159,3.94557 7.95883,5.49789 3.5361,1.96385 8.39551,2.88116 12.13721,4.71233 0.75257,0.3679 2.74242,1.70007 2.18591,1.98449 -1.889,0.82862 -5.16983,0.3509 -7.13332,-0.10014 -0.99077,-0.23036 -2.22436,-0.47942 -2.71333,0.40081 a 4.07468,4.07468 0 0 0 0.25963,3.31145 4.32051,4.32051 0 0 0 2.059,2.24238 c 1.21472,0.56016 2.88048,0.5896 3.99751,1.23324 2.08165,1.19584 2.16115,5.11006 0.7973,7.05245 -1.14147,1.62749 -4.53915,1.923 -7.68689,1.7709 -3.04678,-0.14828 -6.58043,-0.46662 -8.82612,0.47077 -2.21156,0.91976 -3.2792,2.47413 -4.59232,4.40545 a 0.50625,0.50625 0 0 1 -0.73909,0.10184 c -7.81818,-4.69814 -17.68686,-7.11757 -22.95953,-14.56456 a 15.94379,15.94379 0 0 1 -2.55625,-6.72854 13.41361,13.41361 0 0 1 5.02046,-13.33858 z M 56.83993,73.38734 C 55.29751,73.21171 55.27566,72.0834 55.9278,71.64378 a 37.7999,37.7999 0 0 1 7.13141,-3.6769 3.616,3.616 0 0 1 1.99226,-0.33359 c 2.016,0.20177 5.35429,1.55906 9.18483,4.292 4.59371,3.27782 8.68043,9.5049 5.94738,9.00086 a 25.59524,25.59524 0 0 0 -3.00191,-0.43941 c -2.07059,-0.18361 -3.42908,0.02891 -4.3831,-0.06825 A 1.96255,1.96255 0 0 1 71.76253,79.86801 C 67.88555,76.39134 63.4065,74.18479 56.83993,73.38734 Z m 40.8958,50.53515 a 3.07547,3.07547 0 0 1 1.33667,-1.817 c 1.28091,-0.80333 3.40964,-0.838 5.46408,-0.97864 a 17.3433,17.3433 0 0 0 5.53425,-0.90518 c 0.85722,-0.39425 1.71461,-1.517 3.03915,-0.945 a 2.1965,2.1965 0 0 1 1.15583,1.41653 5.15179,5.15179 0 0 1 0.29759,2.13323 c -0.19071,2.46342 -2.1913,3.66618 -2.55122,5.96884 a 2.05507,2.05507 0 0 1 -0.29862,1.07563 c -1.52756,1.55473 -4.54834,1.22774 -7.27933,0.95268 a 8.69731,8.69731 0 0 1 -2.6051,-0.43859 5.72851,5.72851 0 0 1 -1.302,-1.04618 30.72225,30.72225 0 0 1 -2.24377,-2.38822 4.156,4.156 0 0 1 -1.01465,-1.30081 6.83011,6.83011 0 0 1 0.46712,-1.72729 z M 45.24681,80.42659 a 2.19709,2.19709 0 0 1 1.1785,-0.73891 30.35515,30.35515 0 0 1 19.20314,1.63373 c 1.14285,0.50578 1.65764,1.2227 0.90727,1.704 a 38.83021,38.83021 0 0 0 -5.4445,3.92461 2.4715,2.4715 0 0 1 -1.782,0.35665 c -5.96657,-0.78655 -9.06564,-1.25111 -18.03517,2.149 -1.37634,0.57868 -2.61425,-0.20873 -1.98084,-1.29042 a 45.71349,45.71349 0 0 1 5.9536,-7.73866 z m -12.404,24.0215 a 2.29577,2.29577 0 0 1 0.54631,-1.316 34.484,34.484 0 0 1 19.42663,-11.19688 c 1.505,-0.21547 2.58967,-0.11153 2.83632,0.49191 0.43232,1.058 -0.4436,1.66768 -1.49741,2.2774 -18.34557,10.964 -17.04493,27.26345 -17.22056,33.931 0.05523,2.72738 -1.91434,3.22379 -2.40625,1.93926 a 48.03957,48.03957 0 0 1 -1.685,-26.12669 z m 23.11943,12.81412 a 21.79159,21.79159 0 0 1 0.30553,-17.62467 c 0.71883,-1.35484 1.42121,-2.24 2.33834,-1.985 0.998,0.27818 1.22859,1.29978 1.3663,3.19314 1.01553,15.714 10.52044,21.00487 22.459,26.55278 9.41867,4.81489 20.135,10.31952 29.11613,23.654 1.35934,1.925 1.55544,3.09318 0.0208,4.19584 a 48.8677,48.8677 0 0 1 -17.69378,8.03627 c -1.09244,0.25566 -2.21936,0.0637 -3.18708,-2.43256 -10.08223,-25.97744 -27.00989,-24.80653 -34.72519,-43.5898 z m 62.44125,31.94758 c -1.535,1.5343 -2.40553,0.33154 -2.907,-0.65367 a 45.56724,45.56724 0 0 0 -7.63545,-12.10256 0.787,0.787 0 0 1 0.72767,-1.34448 5.49979,5.49979 0 0 0 3.03671,-0.49294 6.08554,6.08554 0 0 0 2.787,-3.94437 c 0.427,-1.50691 0.447,-1.95033 1.37041,-2.04423 a 3.03522,3.03522 0 0 1 0.90418,0.10947 10.91777,10.91777 0 0 1 3.21234,1.91468 31.19269,31.19269 0 0 1 6.22659,6.77494 1.7957,1.7957 0 0 1 -0.19539,1.76711 50.13426,50.13426 0 0 1 -7.52702,10.01605 z"
       transform="translate(-27.25197,-24.7154)"
       data-reactid="86"
       id="path72" />
    <path
       d="m 84.67135,98.22743 a 24.39354,24.39354 0 0 1 3.87228,1.41064 c 0.61681,0.34572 1.23657,1.26789 2.09726,1.15807 0.85356,-0.11015 1.38723,-1.80138 1.55541,-2.67715 a 6.49165,6.49165 0 0 0 -0.32458,-3.6897 c -0.72075,-1.35037 -2.77207,-1.658 -4.92038,-1.55473 a 12.1195,12.1195 0 0 0 -3.40063,0.54179 c -1.18893,0.36584 -2.84033,1.15463 -2.13345,2.82124 0.47166,1.11964 2.08027,1.60115 3.25409,1.98984 z"
       transform="translate(-27.25197,-24.7154)"
       data-reactid="87"
       id="path74" />
  </g>
</svg>
